<mxfile host="app.diagrams.net" modified="2024-03-15T14:46:21.088Z" agent="Mozilla/5.0 (Windows NT 10.0; Win64; x64) AppleWebKit/537.36 (KHTML, like Gecko) Chrome/122.0.0.0 Safari/537.36" etag="2eFkaRgnF30EJTdT7tmh" version="24.0.7" type="github">
  <diagram id="R2lEEEUBdFMjLlhIrx00" name="Page-1">
    <mxGraphModel dx="1891" dy="956" grid="1" gridSize="10" guides="1" tooltips="1" connect="1" arrows="1" fold="1" page="1" pageScale="1" pageWidth="850" pageHeight="1100" math="0" shadow="0" extFonts="Permanent Marker^https://fonts.googleapis.com/css?family=Permanent+Marker">
      <root>
        <mxCell id="0" />
        <mxCell id="1" style="" parent="0" />
        <mxCell id="C-vyLk0tnHw3VtMMgP7b-2" value="TICKET" style="shape=table;startSize=30;container=1;collapsible=1;childLayout=tableLayout;fixedRows=1;rowLines=0;fontStyle=1;align=center;resizeLast=1;" parent="1" vertex="1">
          <mxGeometry x="450" y="100" width="270" height="190" as="geometry" />
        </mxCell>
        <mxCell id="C-vyLk0tnHw3VtMMgP7b-3" value="" style="shape=partialRectangle;collapsible=0;dropTarget=0;pointerEvents=0;fillColor=none;points=[[0,0.5],[1,0.5]];portConstraint=eastwest;top=0;left=0;right=0;bottom=1;" parent="C-vyLk0tnHw3VtMMgP7b-2" vertex="1">
          <mxGeometry y="30" width="270" height="30" as="geometry" />
        </mxCell>
        <mxCell id="C-vyLk0tnHw3VtMMgP7b-4" value="PK,INT" style="shape=partialRectangle;overflow=hidden;connectable=0;fillColor=none;top=0;left=0;bottom=0;right=0;fontStyle=1;" parent="C-vyLk0tnHw3VtMMgP7b-3" vertex="1">
          <mxGeometry width="90" height="30" as="geometry">
            <mxRectangle width="90" height="30" as="alternateBounds" />
          </mxGeometry>
        </mxCell>
        <mxCell id="C-vyLk0tnHw3VtMMgP7b-5" value="TicketID" style="shape=partialRectangle;overflow=hidden;connectable=0;fillColor=none;top=0;left=0;bottom=0;right=0;align=left;spacingLeft=6;fontStyle=0;" parent="C-vyLk0tnHw3VtMMgP7b-3" vertex="1">
          <mxGeometry x="90" width="180" height="30" as="geometry">
            <mxRectangle width="180" height="30" as="alternateBounds" />
          </mxGeometry>
        </mxCell>
        <mxCell id="C-vyLk0tnHw3VtMMgP7b-6" value="" style="shape=partialRectangle;collapsible=0;dropTarget=0;pointerEvents=0;fillColor=none;points=[[0,0.5],[1,0.5]];portConstraint=eastwest;top=0;left=0;right=0;bottom=0;" parent="C-vyLk0tnHw3VtMMgP7b-2" vertex="1">
          <mxGeometry y="60" width="270" height="30" as="geometry" />
        </mxCell>
        <mxCell id="C-vyLk0tnHw3VtMMgP7b-7" value="Varchar" style="shape=partialRectangle;overflow=hidden;connectable=0;fillColor=none;top=0;left=0;bottom=0;right=0;fontStyle=1" parent="C-vyLk0tnHw3VtMMgP7b-6" vertex="1">
          <mxGeometry width="90" height="30" as="geometry">
            <mxRectangle width="90" height="30" as="alternateBounds" />
          </mxGeometry>
        </mxCell>
        <mxCell id="C-vyLk0tnHw3VtMMgP7b-8" value="Ticketnumber" style="shape=partialRectangle;overflow=hidden;connectable=0;fillColor=none;top=0;left=0;bottom=0;right=0;align=left;spacingLeft=6;" parent="C-vyLk0tnHw3VtMMgP7b-6" vertex="1">
          <mxGeometry x="90" width="180" height="30" as="geometry">
            <mxRectangle width="180" height="30" as="alternateBounds" />
          </mxGeometry>
        </mxCell>
        <mxCell id="C-vyLk0tnHw3VtMMgP7b-9" value="" style="shape=partialRectangle;collapsible=0;dropTarget=0;pointerEvents=0;fillColor=none;points=[[0,0.5],[1,0.5]];portConstraint=eastwest;top=0;left=0;right=0;bottom=0;" parent="C-vyLk0tnHw3VtMMgP7b-2" vertex="1">
          <mxGeometry y="90" width="270" height="30" as="geometry" />
        </mxCell>
        <mxCell id="C-vyLk0tnHw3VtMMgP7b-10" value="int" style="shape=partialRectangle;overflow=hidden;connectable=0;fillColor=none;top=0;left=0;bottom=0;right=0;fontStyle=1" parent="C-vyLk0tnHw3VtMMgP7b-9" vertex="1">
          <mxGeometry width="90" height="30" as="geometry">
            <mxRectangle width="90" height="30" as="alternateBounds" />
          </mxGeometry>
        </mxCell>
        <mxCell id="C-vyLk0tnHw3VtMMgP7b-11" value="Ticketclass" style="shape=partialRectangle;overflow=hidden;connectable=0;fillColor=none;top=0;left=0;bottom=0;right=0;align=left;spacingLeft=6;" parent="C-vyLk0tnHw3VtMMgP7b-9" vertex="1">
          <mxGeometry x="90" width="180" height="30" as="geometry">
            <mxRectangle width="180" height="30" as="alternateBounds" />
          </mxGeometry>
        </mxCell>
        <mxCell id="2QSCJjUwv5I4YArLRtF4-54" value="" style="endArrow=none;html=1;rounded=0;exitX=0.001;exitY=-0.004;exitDx=0;exitDy=0;exitPerimeter=0;entryX=0.997;entryY=-0.023;entryDx=0;entryDy=0;entryPerimeter=0;" edge="1" parent="C-vyLk0tnHw3VtMMgP7b-2" source="C-vyLk0tnHw3VtMMgP7b-9" target="C-vyLk0tnHw3VtMMgP7b-9">
          <mxGeometry width="50" height="50" relative="1" as="geometry">
            <mxPoint x="40" y="140" as="sourcePoint" />
            <mxPoint x="90" y="90" as="targetPoint" />
          </mxGeometry>
        </mxCell>
        <mxCell id="C-vyLk0tnHw3VtMMgP7b-13" value="EMBARKATION" style="shape=table;startSize=30;container=1;collapsible=1;childLayout=tableLayout;fixedRows=1;rowLines=0;fontStyle=1;align=center;resizeLast=1;" parent="1" vertex="1">
          <mxGeometry x="531" y="352" width="250" height="200" as="geometry" />
        </mxCell>
        <mxCell id="C-vyLk0tnHw3VtMMgP7b-14" value="" style="shape=partialRectangle;collapsible=0;dropTarget=0;pointerEvents=0;fillColor=none;points=[[0,0.5],[1,0.5]];portConstraint=eastwest;top=0;left=0;right=0;bottom=1;" parent="C-vyLk0tnHw3VtMMgP7b-13" vertex="1">
          <mxGeometry y="30" width="250" height="30" as="geometry" />
        </mxCell>
        <mxCell id="C-vyLk0tnHw3VtMMgP7b-15" value="PK,int" style="shape=partialRectangle;overflow=hidden;connectable=0;fillColor=none;top=0;left=0;bottom=0;right=0;fontStyle=1;" parent="C-vyLk0tnHw3VtMMgP7b-14" vertex="1">
          <mxGeometry width="80.00000000000011" height="30" as="geometry">
            <mxRectangle width="80.00000000000011" height="30" as="alternateBounds" />
          </mxGeometry>
        </mxCell>
        <mxCell id="C-vyLk0tnHw3VtMMgP7b-16" value="EmbarkationID" style="shape=partialRectangle;overflow=hidden;connectable=0;fillColor=none;top=0;left=0;bottom=0;right=0;align=left;spacingLeft=6;fontStyle=0;" parent="C-vyLk0tnHw3VtMMgP7b-14" vertex="1">
          <mxGeometry x="80.00000000000011" width="169.9999999999999" height="30" as="geometry">
            <mxRectangle width="169.9999999999999" height="30" as="alternateBounds" />
          </mxGeometry>
        </mxCell>
        <mxCell id="C-vyLk0tnHw3VtMMgP7b-17" value="" style="shape=partialRectangle;collapsible=0;dropTarget=0;pointerEvents=0;fillColor=none;points=[[0,0.5],[1,0.5]];portConstraint=eastwest;top=0;left=0;right=0;bottom=0;" parent="C-vyLk0tnHw3VtMMgP7b-13" vertex="1">
          <mxGeometry y="60" width="250" height="30" as="geometry" />
        </mxCell>
        <mxCell id="C-vyLk0tnHw3VtMMgP7b-18" value="Varchar" style="shape=partialRectangle;overflow=hidden;connectable=0;fillColor=none;top=0;left=0;bottom=0;right=0;fontStyle=1" parent="C-vyLk0tnHw3VtMMgP7b-17" vertex="1">
          <mxGeometry width="80.00000000000011" height="30" as="geometry">
            <mxRectangle width="80.00000000000011" height="30" as="alternateBounds" />
          </mxGeometry>
        </mxCell>
        <mxCell id="C-vyLk0tnHw3VtMMgP7b-19" value="EmbarkationPoint" style="shape=partialRectangle;overflow=hidden;connectable=0;fillColor=none;top=0;left=0;bottom=0;right=0;align=left;spacingLeft=6;" parent="C-vyLk0tnHw3VtMMgP7b-17" vertex="1">
          <mxGeometry x="80.00000000000011" width="169.9999999999999" height="30" as="geometry">
            <mxRectangle width="169.9999999999999" height="30" as="alternateBounds" />
          </mxGeometry>
        </mxCell>
        <mxCell id="C-vyLk0tnHw3VtMMgP7b-20" value="" style="shape=partialRectangle;collapsible=0;dropTarget=0;pointerEvents=0;fillColor=none;points=[[0,0.5],[1,0.5]];portConstraint=eastwest;top=0;left=0;right=0;bottom=0;" parent="C-vyLk0tnHw3VtMMgP7b-13" vertex="1">
          <mxGeometry y="90" width="250" height="30" as="geometry" />
        </mxCell>
        <mxCell id="C-vyLk0tnHw3VtMMgP7b-21" value="DateTime" style="shape=partialRectangle;overflow=hidden;connectable=0;fillColor=none;top=0;left=0;bottom=0;right=0;fontStyle=1" parent="C-vyLk0tnHw3VtMMgP7b-20" vertex="1">
          <mxGeometry width="80.00000000000011" height="30" as="geometry">
            <mxRectangle width="80.00000000000011" height="30" as="alternateBounds" />
          </mxGeometry>
        </mxCell>
        <mxCell id="C-vyLk0tnHw3VtMMgP7b-22" value="EmbarkationDateTime" style="shape=partialRectangle;overflow=hidden;connectable=0;fillColor=none;top=0;left=0;bottom=0;right=0;align=left;spacingLeft=6;" parent="C-vyLk0tnHw3VtMMgP7b-20" vertex="1">
          <mxGeometry x="80.00000000000011" width="169.9999999999999" height="30" as="geometry">
            <mxRectangle width="169.9999999999999" height="30" as="alternateBounds" />
          </mxGeometry>
        </mxCell>
        <mxCell id="C-vyLk0tnHw3VtMMgP7b-23" value="PASSENGER" style="shape=table;startSize=30;container=1;collapsible=1;childLayout=tableLayout;fixedRows=1;rowLines=0;fontStyle=1;align=center;resizeLast=1;" parent="1" vertex="1">
          <mxGeometry x="50" y="110" width="300" height="270" as="geometry" />
        </mxCell>
        <mxCell id="C-vyLk0tnHw3VtMMgP7b-24" value="" style="shape=partialRectangle;collapsible=0;dropTarget=0;pointerEvents=0;fillColor=none;points=[[0,0.5],[1,0.5]];portConstraint=eastwest;top=0;left=0;right=0;bottom=1;" parent="C-vyLk0tnHw3VtMMgP7b-23" vertex="1">
          <mxGeometry y="30" width="300" height="31" as="geometry" />
        </mxCell>
        <mxCell id="C-vyLk0tnHw3VtMMgP7b-25" value="PK,int" style="shape=partialRectangle;overflow=hidden;connectable=0;fillColor=none;top=0;left=0;bottom=0;right=0;fontStyle=1;fontSize=11;" parent="C-vyLk0tnHw3VtMMgP7b-24" vertex="1">
          <mxGeometry width="110" height="31" as="geometry">
            <mxRectangle width="110" height="31" as="alternateBounds" />
          </mxGeometry>
        </mxCell>
        <mxCell id="C-vyLk0tnHw3VtMMgP7b-26" value="" style="shape=partialRectangle;overflow=hidden;connectable=0;fillColor=none;top=0;left=0;bottom=0;right=0;align=left;spacingLeft=6;fontStyle=5;" parent="C-vyLk0tnHw3VtMMgP7b-24" vertex="1">
          <mxGeometry x="110" width="190" height="31" as="geometry">
            <mxRectangle width="190" height="31" as="alternateBounds" />
          </mxGeometry>
        </mxCell>
        <mxCell id="C-vyLk0tnHw3VtMMgP7b-27" value="" style="shape=partialRectangle;collapsible=0;dropTarget=0;pointerEvents=0;fillColor=none;points=[[0,0.5],[1,0.5]];portConstraint=eastwest;top=0;left=0;right=0;bottom=0;" parent="C-vyLk0tnHw3VtMMgP7b-23" vertex="1">
          <mxGeometry y="61" width="300" height="29" as="geometry" />
        </mxCell>
        <mxCell id="C-vyLk0tnHw3VtMMgP7b-28" value="Varchar(255)" style="shape=partialRectangle;overflow=hidden;connectable=0;fillColor=none;top=0;left=0;bottom=0;right=0;fontStyle=1" parent="C-vyLk0tnHw3VtMMgP7b-27" vertex="1">
          <mxGeometry width="110" height="29" as="geometry">
            <mxRectangle width="110" height="29" as="alternateBounds" />
          </mxGeometry>
        </mxCell>
        <mxCell id="C-vyLk0tnHw3VtMMgP7b-29" value="pass_name (varchar(255)" style="shape=partialRectangle;overflow=hidden;connectable=0;fillColor=none;top=0;left=0;bottom=0;right=0;align=left;spacingLeft=6;spacingRight=7;" parent="C-vyLk0tnHw3VtMMgP7b-27" vertex="1">
          <mxGeometry x="110" width="190" height="29" as="geometry">
            <mxRectangle width="190" height="29" as="alternateBounds" />
          </mxGeometry>
        </mxCell>
        <mxCell id="2QSCJjUwv5I4YArLRtF4-8" value="" style="endArrow=none;html=1;rounded=0;entryX=0.999;entryY=0.979;entryDx=0;entryDy=0;entryPerimeter=0;" edge="1" parent="C-vyLk0tnHw3VtMMgP7b-23" target="C-vyLk0tnHw3VtMMgP7b-27">
          <mxGeometry width="50" height="50" relative="1" as="geometry">
            <mxPoint y="89" as="sourcePoint" />
            <mxPoint x="70" y="90" as="targetPoint" />
          </mxGeometry>
        </mxCell>
        <mxCell id="2QSCJjUwv5I4YArLRtF4-1" value="Passenger ID(Primarykey,int)" style="text;html=1;align=center;verticalAlign=middle;whiteSpace=wrap;rounded=0;" vertex="1" parent="1">
          <mxGeometry x="155" y="140" width="180" height="30" as="geometry" />
        </mxCell>
        <mxCell id="2QSCJjUwv5I4YArLRtF4-6" value="" style="endArrow=none;html=1;rounded=0;" edge="1" parent="1">
          <mxGeometry width="50" height="50" relative="1" as="geometry">
            <mxPoint x="160" y="380" as="sourcePoint" />
            <mxPoint x="160" y="200" as="targetPoint" />
          </mxGeometry>
        </mxCell>
        <mxCell id="2QSCJjUwv5I4YArLRtF4-11" value="" style="endArrow=none;html=1;rounded=0;" edge="1" parent="1">
          <mxGeometry width="50" height="50" relative="1" as="geometry">
            <mxPoint x="50" y="230" as="sourcePoint" />
            <mxPoint x="350" y="230" as="targetPoint" />
          </mxGeometry>
        </mxCell>
        <mxCell id="2QSCJjUwv5I4YArLRtF4-13" value="" style="endArrow=none;html=1;rounded=0;" edge="1" parent="1">
          <mxGeometry width="50" height="50" relative="1" as="geometry">
            <mxPoint x="50" y="260" as="sourcePoint" />
            <mxPoint x="350" y="260" as="targetPoint" />
          </mxGeometry>
        </mxCell>
        <mxCell id="2QSCJjUwv5I4YArLRtF4-14" value="" style="endArrow=none;html=1;rounded=0;" edge="1" parent="1">
          <mxGeometry width="50" height="50" relative="1" as="geometry">
            <mxPoint x="50" y="290" as="sourcePoint" />
            <mxPoint x="350" y="290" as="targetPoint" />
          </mxGeometry>
        </mxCell>
        <mxCell id="2QSCJjUwv5I4YArLRtF4-15" value="" style="endArrow=none;html=1;rounded=0;" edge="1" parent="1">
          <mxGeometry width="50" height="50" relative="1" as="geometry">
            <mxPoint x="50" y="320" as="sourcePoint" />
            <mxPoint x="350" y="320" as="targetPoint" />
          </mxGeometry>
        </mxCell>
        <mxCell id="2QSCJjUwv5I4YArLRtF4-17" value="age&amp;nbsp;" style="text;html=1;align=center;verticalAlign=middle;whiteSpace=wrap;rounded=0;" vertex="1" parent="1">
          <mxGeometry x="157.5" y="200" width="60" height="30" as="geometry" />
        </mxCell>
        <mxCell id="2QSCJjUwv5I4YArLRtF4-18" value="sex&amp;nbsp;" style="text;html=1;align=center;verticalAlign=middle;whiteSpace=wrap;rounded=0;" vertex="1" parent="1">
          <mxGeometry x="125" y="230" width="125" height="30" as="geometry" />
        </mxCell>
        <mxCell id="2QSCJjUwv5I4YArLRtF4-20" value="Ticket&amp;nbsp;" style="text;html=1;align=center;verticalAlign=middle;whiteSpace=wrap;rounded=0;spacingLeft=-8;spacingRight=-4;" vertex="1" parent="1">
          <mxGeometry x="122.5" y="260" width="140" height="30" as="geometry" />
        </mxCell>
        <mxCell id="2QSCJjUwv5I4YArLRtF4-21" value="Fare&amp;nbsp;" style="text;html=1;align=center;verticalAlign=middle;whiteSpace=wrap;rounded=0;" vertex="1" parent="1">
          <mxGeometry x="122.5" y="290" width="130" height="30" as="geometry" />
        </mxCell>
        <mxCell id="2QSCJjUwv5I4YArLRtF4-22" value="cabin&amp;nbsp;" style="text;html=1;align=center;verticalAlign=middle;whiteSpace=wrap;rounded=0;" vertex="1" parent="1">
          <mxGeometry x="122.5" y="320" width="130" height="30" as="geometry" />
        </mxCell>
        <mxCell id="2QSCJjUwv5I4YArLRtF4-23" value="Survived&amp;nbsp;" style="text;html=1;align=center;verticalAlign=middle;whiteSpace=wrap;rounded=0;spacingRight=-2;" vertex="1" parent="1">
          <mxGeometry x="142.5" y="350" width="110" height="30" as="geometry" />
        </mxCell>
        <mxCell id="2QSCJjUwv5I4YArLRtF4-43" value="" style="endArrow=none;html=1;rounded=0;" edge="1" parent="1">
          <mxGeometry width="50" height="50" relative="1" as="geometry">
            <mxPoint x="350" y="350" as="sourcePoint" />
            <mxPoint x="50" y="350" as="targetPoint" />
          </mxGeometry>
        </mxCell>
        <mxCell id="2QSCJjUwv5I4YArLRtF4-44" value="&lt;b&gt;int&lt;/b&gt;" style="text;html=1;align=center;verticalAlign=middle;resizable=0;points=[];autosize=1;strokeColor=none;fillColor=none;" vertex="1" parent="1">
          <mxGeometry x="85" y="200" width="40" height="30" as="geometry" />
        </mxCell>
        <mxCell id="2QSCJjUwv5I4YArLRtF4-45" value="&lt;b&gt;Varchar(255)&lt;/b&gt;" style="text;html=1;align=center;verticalAlign=middle;resizable=0;points=[];autosize=1;strokeColor=none;fillColor=none;" vertex="1" parent="1">
          <mxGeometry x="55" y="230" width="100" height="30" as="geometry" />
        </mxCell>
        <mxCell id="2QSCJjUwv5I4YArLRtF4-46" value="&lt;b&gt;Varchar(20)&lt;/b&gt;" style="text;html=1;align=center;verticalAlign=middle;resizable=0;points=[];autosize=1;strokeColor=none;fillColor=none;" vertex="1" parent="1">
          <mxGeometry x="60" y="260" width="90" height="30" as="geometry" />
        </mxCell>
        <mxCell id="2QSCJjUwv5I4YArLRtF4-47" value="&lt;b&gt;Decimal(10.2)&lt;/b&gt;" style="text;html=1;align=center;verticalAlign=middle;resizable=0;points=[];autosize=1;strokeColor=none;fillColor=none;" vertex="1" parent="1">
          <mxGeometry x="55" y="290" width="100" height="30" as="geometry" />
        </mxCell>
        <mxCell id="2QSCJjUwv5I4YArLRtF4-48" value="&lt;b&gt;Varchar(10)&lt;/b&gt;" style="text;html=1;align=center;verticalAlign=middle;resizable=0;points=[];autosize=1;strokeColor=none;fillColor=none;" vertex="1" parent="1">
          <mxGeometry x="60" y="320" width="90" height="30" as="geometry" />
        </mxCell>
        <mxCell id="2QSCJjUwv5I4YArLRtF4-49" value="&lt;b&gt;bit&lt;/b&gt;" style="text;html=1;align=center;verticalAlign=middle;resizable=0;points=[];autosize=1;strokeColor=none;fillColor=none;" vertex="1" parent="1">
          <mxGeometry x="85" y="350" width="40" height="30" as="geometry" />
        </mxCell>
        <mxCell id="2QSCJjUwv5I4YArLRtF4-51" value="" style="endArrow=none;html=1;rounded=0;" edge="1" parent="1">
          <mxGeometry width="50" height="50" relative="1" as="geometry">
            <mxPoint x="540" y="290" as="sourcePoint" />
            <mxPoint x="540" y="220" as="targetPoint" />
          </mxGeometry>
        </mxCell>
        <mxCell id="2QSCJjUwv5I4YArLRtF4-55" value="" style="endArrow=none;html=1;rounded=0;exitX=0.001;exitY=-0.004;exitDx=0;exitDy=0;exitPerimeter=0;entryX=0.997;entryY=-0.023;entryDx=0;entryDy=0;entryPerimeter=0;spacingRight=1;" edge="1" parent="1">
          <mxGeometry width="50" height="50" relative="1" as="geometry">
            <mxPoint x="450" y="219.5" as="sourcePoint" />
            <mxPoint x="719" y="218.5" as="targetPoint" />
          </mxGeometry>
        </mxCell>
        <mxCell id="2QSCJjUwv5I4YArLRtF4-59" value="" style="endArrow=none;html=1;rounded=0;exitX=0.001;exitY=-0.004;exitDx=0;exitDy=0;exitPerimeter=0;entryX=0.997;entryY=-0.023;entryDx=0;entryDy=0;entryPerimeter=0;spacingRight=1;" edge="1" parent="1">
          <mxGeometry width="50" height="50" relative="1" as="geometry">
            <mxPoint x="450.5" y="245.5" as="sourcePoint" />
            <mxPoint x="719.5" y="244.5" as="targetPoint" />
          </mxGeometry>
        </mxCell>
        <mxCell id="2QSCJjUwv5I4YArLRtF4-60" value="" style="endArrow=none;html=1;rounded=0;exitX=0.001;exitY=-0.004;exitDx=0;exitDy=0;exitPerimeter=0;entryX=0.997;entryY=-0.023;entryDx=0;entryDy=0;entryPerimeter=0;spacingRight=1;" edge="1" parent="1">
          <mxGeometry width="50" height="50" relative="1" as="geometry">
            <mxPoint x="451" y="269" as="sourcePoint" />
            <mxPoint x="720" y="268" as="targetPoint" />
          </mxGeometry>
        </mxCell>
        <mxCell id="2QSCJjUwv5I4YArLRtF4-61" value="" style="endArrow=none;html=1;rounded=0;exitX=0.001;exitY=-0.004;exitDx=0;exitDy=0;exitPerimeter=0;entryX=0.997;entryY=-0.023;entryDx=0;entryDy=0;entryPerimeter=0;spacingRight=1;" edge="1" parent="1">
          <mxGeometry width="50" height="50" relative="1" as="geometry">
            <mxPoint x="450" y="291" as="sourcePoint" />
            <mxPoint x="719" y="290" as="targetPoint" />
          </mxGeometry>
        </mxCell>
        <mxCell id="2QSCJjUwv5I4YArLRtF4-82" value="&lt;b&gt;Varchar&lt;/b&gt;" style="text;html=1;align=center;verticalAlign=middle;resizable=0;points=[];autosize=1;strokeColor=none;fillColor=none;" vertex="1" parent="1">
          <mxGeometry x="460" y="218" width="70" height="30" as="geometry" />
        </mxCell>
        <mxCell id="2QSCJjUwv5I4YArLRtF4-83" value="&lt;b&gt;Decimal&lt;/b&gt;" style="text;html=1;align=center;verticalAlign=middle;resizable=0;points=[];autosize=1;strokeColor=none;fillColor=none;" vertex="1" parent="1">
          <mxGeometry x="460" y="240" width="70" height="30" as="geometry" />
        </mxCell>
        <mxCell id="2QSCJjUwv5I4YArLRtF4-84" value="&lt;b&gt;FK,int&lt;/b&gt;" style="text;html=1;align=center;verticalAlign=middle;resizable=0;points=[];autosize=1;strokeColor=none;fillColor=none;" vertex="1" parent="1">
          <mxGeometry x="465" y="263" width="60" height="30" as="geometry" />
        </mxCell>
        <mxCell id="2QSCJjUwv5I4YArLRtF4-90" value="Tickettype" style="text;html=1;align=center;verticalAlign=middle;resizable=0;points=[];autosize=1;strokeColor=none;fillColor=none;" vertex="1" parent="1">
          <mxGeometry x="535" y="218" width="80" height="30" as="geometry" />
        </mxCell>
        <mxCell id="2QSCJjUwv5I4YArLRtF4-91" value="Ticketprice" style="text;html=1;align=center;verticalAlign=middle;resizable=0;points=[];autosize=1;strokeColor=none;fillColor=none;" vertex="1" parent="1">
          <mxGeometry x="535" y="240" width="80" height="30" as="geometry" />
        </mxCell>
        <mxCell id="2QSCJjUwv5I4YArLRtF4-92" value="PassengerID" style="text;html=1;align=center;verticalAlign=middle;resizable=0;points=[];autosize=1;strokeColor=none;fillColor=none;" vertex="1" parent="1">
          <mxGeometry x="540" y="263" width="90" height="30" as="geometry" />
        </mxCell>
        <mxCell id="2QSCJjUwv5I4YArLRtF4-99" value="" style="endArrow=none;html=1;rounded=0;" edge="1" parent="1">
          <mxGeometry width="50" height="50" relative="1" as="geometry">
            <mxPoint x="611" y="552" as="sourcePoint" />
            <mxPoint x="610.6" y="472" as="targetPoint" />
          </mxGeometry>
        </mxCell>
        <mxCell id="2QSCJjUwv5I4YArLRtF4-101" value="" style="endArrow=none;html=1;rounded=0;entryX=1.007;entryY=-0.013;entryDx=0;entryDy=0;entryPerimeter=0;" edge="1" parent="1" target="C-vyLk0tnHw3VtMMgP7b-20">
          <mxGeometry width="50" height="50" relative="1" as="geometry">
            <mxPoint x="531" y="442" as="sourcePoint" />
            <mxPoint x="581" y="392" as="targetPoint" />
          </mxGeometry>
        </mxCell>
        <mxCell id="2QSCJjUwv5I4YArLRtF4-102" value="" style="endArrow=none;html=1;rounded=0;" edge="1" parent="1">
          <mxGeometry width="50" height="50" relative="1" as="geometry">
            <mxPoint x="531" y="472.39" as="sourcePoint" />
            <mxPoint x="781" y="472" as="targetPoint" />
          </mxGeometry>
        </mxCell>
        <mxCell id="2QSCJjUwv5I4YArLRtF4-104" value="" style="endArrow=none;html=1;rounded=0;" edge="1" parent="1">
          <mxGeometry width="50" height="50" relative="1" as="geometry">
            <mxPoint x="531" y="498.19000000000005" as="sourcePoint" />
            <mxPoint x="781" y="497.79999999999995" as="targetPoint" />
          </mxGeometry>
        </mxCell>
        <mxCell id="2QSCJjUwv5I4YArLRtF4-105" value="" style="endArrow=none;html=1;rounded=0;" edge="1" parent="1">
          <mxGeometry width="50" height="50" relative="1" as="geometry">
            <mxPoint x="531" y="522.3900000000001" as="sourcePoint" />
            <mxPoint x="781" y="522" as="targetPoint" />
          </mxGeometry>
        </mxCell>
        <mxCell id="2QSCJjUwv5I4YArLRtF4-112" value="&lt;b&gt;Varchar&lt;/b&gt;" style="text;html=1;align=center;verticalAlign=middle;resizable=0;points=[];autosize=1;strokeColor=none;fillColor=none;" vertex="1" parent="1">
          <mxGeometry x="531" y="470" width="70" height="30" as="geometry" />
        </mxCell>
        <mxCell id="2QSCJjUwv5I4YArLRtF4-113" value="&lt;b&gt;Varchar&lt;/b&gt;" style="text;html=1;align=center;verticalAlign=middle;resizable=0;points=[];autosize=1;strokeColor=none;fillColor=none;spacingBottom=7;" vertex="1" parent="1">
          <mxGeometry x="531" y="500" width="70" height="30" as="geometry" />
        </mxCell>
        <mxCell id="2QSCJjUwv5I4YArLRtF4-114" value="&lt;b&gt;FK,int&lt;/b&gt;" style="text;html=1;align=center;verticalAlign=middle;resizable=0;points=[];autosize=1;strokeColor=none;fillColor=none;" vertex="1" parent="1">
          <mxGeometry x="536" y="522" width="60" height="30" as="geometry" />
        </mxCell>
        <mxCell id="2QSCJjUwv5I4YArLRtF4-117" value="EmbarkationGate" style="text;html=1;align=center;verticalAlign=middle;resizable=0;points=[];autosize=1;strokeColor=none;fillColor=none;spacingLeft=-5;" vertex="1" parent="1">
          <mxGeometry x="611" y="470" width="110" height="30" as="geometry" />
        </mxCell>
        <mxCell id="2QSCJjUwv5I4YArLRtF4-118" value="Status" style="text;html=1;align=center;verticalAlign=middle;resizable=0;points=[];autosize=1;strokeColor=none;fillColor=none;spacingLeft=-6;spacingBottom=5;" vertex="1" parent="1">
          <mxGeometry x="611" y="500" width="50" height="30" as="geometry" />
        </mxCell>
        <mxCell id="2QSCJjUwv5I4YArLRtF4-119" value="PassengerID" style="text;html=1;align=center;verticalAlign=middle;resizable=0;points=[];autosize=1;strokeColor=none;fillColor=none;" vertex="1" parent="1">
          <mxGeometry x="606" y="520" width="90" height="30" as="geometry" />
        </mxCell>
        <mxCell id="2QSCJjUwv5I4YArLRtF4-142" value="FAMILY" style="swimlane;whiteSpace=wrap;html=1;" vertex="1" parent="1">
          <mxGeometry x="50" y="470" width="220" height="170" as="geometry" />
        </mxCell>
        <mxCell id="2QSCJjUwv5I4YArLRtF4-145" value="" style="endArrow=none;html=1;rounded=0;" edge="1" parent="2QSCJjUwv5I4YArLRtF4-142">
          <mxGeometry width="50" height="50" relative="1" as="geometry">
            <mxPoint y="80" as="sourcePoint" />
            <mxPoint x="220" y="80" as="targetPoint" />
          </mxGeometry>
        </mxCell>
        <mxCell id="2QSCJjUwv5I4YArLRtF4-146" value="" style="endArrow=none;html=1;rounded=0;" edge="1" parent="2QSCJjUwv5I4YArLRtF4-142">
          <mxGeometry width="50" height="50" relative="1" as="geometry">
            <mxPoint y="109.71" as="sourcePoint" />
            <mxPoint x="220" y="110" as="targetPoint" />
          </mxGeometry>
        </mxCell>
        <mxCell id="2QSCJjUwv5I4YArLRtF4-147" value="" style="endArrow=none;html=1;rounded=0;" edge="1" parent="2QSCJjUwv5I4YArLRtF4-142">
          <mxGeometry width="50" height="50" relative="1" as="geometry">
            <mxPoint y="140" as="sourcePoint" />
            <mxPoint x="220" y="140" as="targetPoint" />
          </mxGeometry>
        </mxCell>
        <mxCell id="2QSCJjUwv5I4YArLRtF4-149" value="" style="endArrow=none;html=1;rounded=0;" edge="1" parent="2QSCJjUwv5I4YArLRtF4-142">
          <mxGeometry width="50" height="50" relative="1" as="geometry">
            <mxPoint x="70" y="170" as="sourcePoint" />
            <mxPoint x="69.82" y="23.03" as="targetPoint" />
          </mxGeometry>
        </mxCell>
        <mxCell id="2QSCJjUwv5I4YArLRtF4-151" value="FamilyID" style="text;html=1;align=center;verticalAlign=middle;resizable=0;points=[];autosize=1;strokeColor=none;fillColor=none;" vertex="1" parent="2QSCJjUwv5I4YArLRtF4-142">
          <mxGeometry x="65" y="22" width="70" height="30" as="geometry" />
        </mxCell>
        <mxCell id="2QSCJjUwv5I4YArLRtF4-152" value="FamilyName" style="text;html=1;align=center;verticalAlign=middle;resizable=0;points=[];autosize=1;strokeColor=none;fillColor=none;" vertex="1" parent="2QSCJjUwv5I4YArLRtF4-142">
          <mxGeometry x="65" y="52" width="90" height="30" as="geometry" />
        </mxCell>
        <mxCell id="2QSCJjUwv5I4YArLRtF4-153" value="FamilySize" style="text;html=1;align=center;verticalAlign=middle;resizable=0;points=[];autosize=1;strokeColor=none;fillColor=none;" vertex="1" parent="2QSCJjUwv5I4YArLRtF4-142">
          <mxGeometry x="65" y="80" width="80" height="30" as="geometry" />
        </mxCell>
        <mxCell id="2QSCJjUwv5I4YArLRtF4-154" value="has_pet" style="text;html=1;align=center;verticalAlign=middle;resizable=0;points=[];autosize=1;strokeColor=none;fillColor=none;" vertex="1" parent="2QSCJjUwv5I4YArLRtF4-142">
          <mxGeometry x="65" y="110" width="70" height="30" as="geometry" />
        </mxCell>
        <mxCell id="2QSCJjUwv5I4YArLRtF4-155" value="passengerID" style="text;html=1;align=center;verticalAlign=middle;resizable=0;points=[];autosize=1;strokeColor=none;fillColor=none;" vertex="1" parent="2QSCJjUwv5I4YArLRtF4-142">
          <mxGeometry x="65" y="140" width="90" height="30" as="geometry" />
        </mxCell>
        <mxCell id="2QSCJjUwv5I4YArLRtF4-158" value="&lt;b&gt;PK,int&lt;/b&gt;" style="text;html=1;align=center;verticalAlign=middle;resizable=0;points=[];autosize=1;strokeColor=none;fillColor=none;" vertex="1" parent="2QSCJjUwv5I4YArLRtF4-142">
          <mxGeometry x="5" y="22" width="60" height="30" as="geometry" />
        </mxCell>
        <mxCell id="2QSCJjUwv5I4YArLRtF4-161" value="&lt;b&gt;Varchar&lt;/b&gt;" style="text;html=1;align=center;verticalAlign=middle;resizable=0;points=[];autosize=1;strokeColor=none;fillColor=none;" vertex="1" parent="2QSCJjUwv5I4YArLRtF4-142">
          <mxGeometry y="50" width="70" height="30" as="geometry" />
        </mxCell>
        <mxCell id="2QSCJjUwv5I4YArLRtF4-162" value="&lt;b&gt;int&lt;/b&gt;" style="text;html=1;align=center;verticalAlign=middle;resizable=0;points=[];autosize=1;strokeColor=none;fillColor=none;" vertex="1" parent="2QSCJjUwv5I4YArLRtF4-142">
          <mxGeometry x="15" y="80" width="40" height="30" as="geometry" />
        </mxCell>
        <mxCell id="2QSCJjUwv5I4YArLRtF4-163" value="&lt;b&gt;bit&lt;/b&gt;" style="text;html=1;align=center;verticalAlign=middle;resizable=0;points=[];autosize=1;strokeColor=none;fillColor=none;" vertex="1" parent="2QSCJjUwv5I4YArLRtF4-142">
          <mxGeometry x="15" y="110" width="40" height="30" as="geometry" />
        </mxCell>
        <mxCell id="2QSCJjUwv5I4YArLRtF4-164" value="&lt;b&gt;FK,int&lt;/b&gt;" style="text;html=1;align=center;verticalAlign=middle;resizable=0;points=[];autosize=1;strokeColor=none;fillColor=none;" vertex="1" parent="2QSCJjUwv5I4YArLRtF4-142">
          <mxGeometry x="5" y="140" width="60" height="30" as="geometry" />
        </mxCell>
        <mxCell id="2QSCJjUwv5I4YArLRtF4-144" value="" style="endArrow=none;html=1;rounded=0;" edge="1" parent="1">
          <mxGeometry width="50" height="50" relative="1" as="geometry">
            <mxPoint x="50" y="520" as="sourcePoint" />
            <mxPoint x="270" y="520" as="targetPoint" />
          </mxGeometry>
        </mxCell>
        <mxCell id="2QSCJjUwv5I4YArLRtF4-167" value="" style="fontSize=12;html=1;endArrow=ERoneToMany;startArrow=ERmandOne;rounded=0;entryX=0.158;entryY=1.004;entryDx=0;entryDy=0;entryPerimeter=0;exitX=0.5;exitY=0;exitDx=0;exitDy=0;" edge="1" parent="1" source="2QSCJjUwv5I4YArLRtF4-142" target="2QSCJjUwv5I4YArLRtF4-23">
          <mxGeometry width="100" height="100" relative="1" as="geometry">
            <mxPoint x="195" y="540" as="sourcePoint" />
            <mxPoint x="229.75" y="370" as="targetPoint" />
          </mxGeometry>
        </mxCell>
        <mxCell id="2QSCJjUwv5I4YArLRtF4-168" value="" style="edgeStyle=entityRelationEdgeStyle;fontSize=12;html=1;endArrow=ERoneToMany;startArrow=ERmandOne;rounded=0;" edge="1" parent="1">
          <mxGeometry width="100" height="100" relative="1" as="geometry">
            <mxPoint x="350" y="270" as="sourcePoint" />
            <mxPoint x="450" y="170" as="targetPoint" />
          </mxGeometry>
        </mxCell>
        <mxCell id="2QSCJjUwv5I4YArLRtF4-169" value="" style="fontSize=12;html=1;endArrow=ERoneToMany;startArrow=ERmandOne;rounded=0;edgeStyle=orthogonalEdgeStyle;entryX=1;entryY=0.5;entryDx=0;entryDy=0;" edge="1" parent="1" source="C-vyLk0tnHw3VtMMgP7b-13" target="C-vyLk0tnHw3VtMMgP7b-9">
          <mxGeometry width="100" height="100" relative="1" as="geometry">
            <mxPoint x="781" y="360" as="sourcePoint" />
            <mxPoint x="832" y="170" as="targetPoint" />
            <Array as="points">
              <mxPoint x="656" y="310" />
              <mxPoint x="760" y="310" />
              <mxPoint x="760" y="205" />
            </Array>
          </mxGeometry>
        </mxCell>
        <mxCell id="2QSCJjUwv5I4YArLRtF4-170" value="CABIN" style="swimlane;whiteSpace=wrap;html=1;" vertex="1" parent="1">
          <mxGeometry x="370" y="660" width="350" height="260" as="geometry" />
        </mxCell>
        <mxCell id="2QSCJjUwv5I4YArLRtF4-171" value="" style="endArrow=none;html=1;rounded=0;" edge="1" parent="2QSCJjUwv5I4YArLRtF4-170">
          <mxGeometry width="50" height="50" relative="1" as="geometry">
            <mxPoint y="60" as="sourcePoint" />
            <mxPoint x="350" y="60" as="targetPoint" />
          </mxGeometry>
        </mxCell>
        <mxCell id="2QSCJjUwv5I4YArLRtF4-172" value="" style="endArrow=none;html=1;rounded=0;" edge="1" parent="2QSCJjUwv5I4YArLRtF4-170">
          <mxGeometry width="50" height="50" relative="1" as="geometry">
            <mxPoint y="100" as="sourcePoint" />
            <mxPoint x="350" y="100" as="targetPoint" />
          </mxGeometry>
        </mxCell>
        <mxCell id="2QSCJjUwv5I4YArLRtF4-173" value="" style="endArrow=none;html=1;rounded=0;" edge="1" parent="2QSCJjUwv5I4YArLRtF4-170">
          <mxGeometry width="50" height="50" relative="1" as="geometry">
            <mxPoint y="140" as="sourcePoint" />
            <mxPoint x="350" y="140" as="targetPoint" />
          </mxGeometry>
        </mxCell>
        <mxCell id="2QSCJjUwv5I4YArLRtF4-174" value="" style="endArrow=none;html=1;rounded=0;" edge="1" parent="2QSCJjUwv5I4YArLRtF4-170">
          <mxGeometry width="50" height="50" relative="1" as="geometry">
            <mxPoint y="180" as="sourcePoint" />
            <mxPoint x="350" y="180" as="targetPoint" />
          </mxGeometry>
        </mxCell>
        <mxCell id="2QSCJjUwv5I4YArLRtF4-175" value="" style="endArrow=none;html=1;rounded=0;" edge="1" parent="2QSCJjUwv5I4YArLRtF4-170">
          <mxGeometry width="50" height="50" relative="1" as="geometry">
            <mxPoint y="220" as="sourcePoint" />
            <mxPoint x="350" y="220" as="targetPoint" />
          </mxGeometry>
        </mxCell>
        <mxCell id="2QSCJjUwv5I4YArLRtF4-178" value="&lt;b&gt;PK,int&lt;/b&gt;" style="text;html=1;align=center;verticalAlign=middle;whiteSpace=wrap;rounded=0;" vertex="1" parent="2QSCJjUwv5I4YArLRtF4-170">
          <mxGeometry x="25" y="30" width="60" height="30" as="geometry" />
        </mxCell>
        <mxCell id="2QSCJjUwv5I4YArLRtF4-179" value="&lt;b&gt;Varchar&lt;/b&gt;" style="text;html=1;align=center;verticalAlign=middle;whiteSpace=wrap;rounded=0;" vertex="1" parent="2QSCJjUwv5I4YArLRtF4-170">
          <mxGeometry x="25" y="70" width="60" height="30" as="geometry" />
        </mxCell>
        <mxCell id="2QSCJjUwv5I4YArLRtF4-180" value="&lt;b&gt;Varchar&lt;/b&gt;" style="text;html=1;align=center;verticalAlign=middle;whiteSpace=wrap;rounded=0;" vertex="1" parent="2QSCJjUwv5I4YArLRtF4-170">
          <mxGeometry x="25" y="110" width="60" height="30" as="geometry" />
        </mxCell>
        <mxCell id="2QSCJjUwv5I4YArLRtF4-182" value="&lt;b&gt;int&lt;/b&gt;" style="text;html=1;align=center;verticalAlign=middle;whiteSpace=wrap;rounded=0;" vertex="1" parent="2QSCJjUwv5I4YArLRtF4-170">
          <mxGeometry x="25" y="150" width="60" height="30" as="geometry" />
        </mxCell>
        <mxCell id="2QSCJjUwv5I4YArLRtF4-183" value="&lt;b&gt;bit&lt;/b&gt;" style="text;html=1;align=center;verticalAlign=middle;whiteSpace=wrap;rounded=0;" vertex="1" parent="2QSCJjUwv5I4YArLRtF4-170">
          <mxGeometry x="25" y="190" width="60" height="30" as="geometry" />
        </mxCell>
        <mxCell id="2QSCJjUwv5I4YArLRtF4-184" value="&lt;b&gt;FK,int&lt;/b&gt;" style="text;html=1;align=center;verticalAlign=middle;whiteSpace=wrap;rounded=0;" vertex="1" parent="2QSCJjUwv5I4YArLRtF4-170">
          <mxGeometry x="25" y="230" width="60" height="30" as="geometry" />
        </mxCell>
        <mxCell id="2QSCJjUwv5I4YArLRtF4-186" value="CabinID" style="text;html=1;align=center;verticalAlign=middle;whiteSpace=wrap;rounded=0;" vertex="1" parent="2QSCJjUwv5I4YArLRtF4-170">
          <mxGeometry x="140" y="30" width="60" height="30" as="geometry" />
        </mxCell>
        <mxCell id="2QSCJjUwv5I4YArLRtF4-191" value="cabinNumber" style="text;html=1;align=center;verticalAlign=middle;whiteSpace=wrap;rounded=0;" vertex="1" parent="2QSCJjUwv5I4YArLRtF4-170">
          <mxGeometry x="140" y="70" width="60" height="30" as="geometry" />
        </mxCell>
        <mxCell id="2QSCJjUwv5I4YArLRtF4-192" value="Deck" style="text;html=1;align=center;verticalAlign=middle;whiteSpace=wrap;rounded=0;" vertex="1" parent="2QSCJjUwv5I4YArLRtF4-170">
          <mxGeometry x="140" y="110" width="60" height="30" as="geometry" />
        </mxCell>
        <mxCell id="2QSCJjUwv5I4YArLRtF4-210" value="Roomnumber" style="text;html=1;align=center;verticalAlign=middle;whiteSpace=wrap;rounded=0;" vertex="1" parent="2QSCJjUwv5I4YArLRtF4-170">
          <mxGeometry x="140" y="150" width="60" height="30" as="geometry" />
        </mxCell>
        <mxCell id="2QSCJjUwv5I4YArLRtF4-211" value="occupancy_status" style="text;html=1;align=center;verticalAlign=middle;whiteSpace=wrap;rounded=0;" vertex="1" parent="2QSCJjUwv5I4YArLRtF4-170">
          <mxGeometry x="145" y="190" width="60" height="30" as="geometry" />
        </mxCell>
        <mxCell id="2QSCJjUwv5I4YArLRtF4-212" value="passenger_ID" style="text;html=1;align=center;verticalAlign=middle;whiteSpace=wrap;rounded=0;" vertex="1" parent="2QSCJjUwv5I4YArLRtF4-170">
          <mxGeometry x="140" y="230" width="60" height="30" as="geometry" />
        </mxCell>
        <mxCell id="2QSCJjUwv5I4YArLRtF4-177" value="" style="endArrow=none;html=1;rounded=0;" edge="1" parent="1">
          <mxGeometry width="50" height="50" relative="1" as="geometry">
            <mxPoint x="480" y="920" as="sourcePoint" />
            <mxPoint x="480" y="683" as="targetPoint" />
          </mxGeometry>
        </mxCell>
        <mxCell id="2QSCJjUwv5I4YArLRtF4-214" value="" style="edgeStyle=orthogonalEdgeStyle;fontSize=12;html=1;endArrow=ERmandOne;startArrow=ERmandOne;rounded=0;entryX=0.499;entryY=0.993;entryDx=0;entryDy=0;entryPerimeter=0;" edge="1" parent="1" target="2QSCJjUwv5I4YArLRtF4-155">
          <mxGeometry width="100" height="100" relative="1" as="geometry">
            <mxPoint x="370" y="800" as="sourcePoint" />
            <mxPoint x="255" y="680" as="targetPoint" />
          </mxGeometry>
        </mxCell>
      </root>
    </mxGraphModel>
  </diagram>
</mxfile>
